<?xml version="1.0" encoding="utf-8"?>
<!-- Generator: Adobe Illustrator 24.1.2, SVG Export Plug-In . SVG Version: 6.00 Build 0)  -->
<svg version="1.1" baseProfile="tiny" id="air-element" class="fill-current"
	 xmlns="http://www.w3.org/2000/svg" xmlns:xlink="http://www.w3.org/1999/xlink" x="0px" y="0px" viewBox="0 0 617 621"
	 overflow="visible" xml:space="preserve">
<path d="M308.7,0.3C141.9,0.2,2.8,137.9,0.3,306c-2.6,173.4,141,317.2,311.9,315.2c165.9-1.9,304.9-140.5,304.9-310.5
	C617.1,139.9,476.6,0.3,308.7,0.3z M311.7,571.7c-145.2,1.6-267.2-119.3-265-265c2.1-141.3,120.3-257,262-257
	c74.2,0,142,31.8,190.1,82.4c-24.9,2.3-45.1,6.2-59.8,9.6c-22.2,5.2-29.3,8.7-83,24c-31.7,9.1-47.8,13.6-57,15
	c-40.2,6-72.2,1.1-86.8-1.7c-10.4-2-19-4.4-25.2-6.3c0,0,22.3,11.2,24,12c15.4,7.7,49.7,17.2,101,16c26.1-0.6,20-3.1,90-11
	c54.6-6.2,71.1-6.1,77-6c24,0.3,44.8,3.1,61.5,6.2c11.1,20.9,19.5,43.4,24.5,67.1c-15.6-2.2-35-3.9-57-3.3
	c-55.7,1.5-100.1,16.5-143,31c-12.2,4.1-64.7,21.3-110.8,25.5c-2.8,0.3-5.4,0.4-8.2,0.5c-31.1,1-57.9-2.2-76.8-5.7
	c-7.5-1.4-17.9-3.7-30.2-7.3c7.3,4.5,18.2,10.5,32,16c16,6.4,52,18.4,124,13c34.9-2.6,29.6-5.6,92-14c48.6-6.5,72.9-9.8,102-9
	c20,0.5,48,3,81.7,11.6c-0.5,29.1-5.9,57.1-15.5,83.2c-12.4-1.6-25.5-3.1-35.2-3.8c-78.9-5.9-152,23.8-172,32c-9.8,4-35,14.7-65,22
	c-23.9,5.8-43.6,7.6-50.7,8.2c-7,0.6-12.2,0.8-13.3,0.8c-30.6,0.7-56.8-3.3-75.4-7.4c-7.6-1.7-17.7-4.5-29.6-8.6
	c8.3,4.9,20.1,11.3,35,17c25.7,9.8,50.7,13.9,78,15c7.9,0.3,14.9,0.3,21.8,0c46.5-2.2,84.7-11.2,111.2-17
	c55.8-12.2,83.7-18.3,115-18c21.4,0.2,40.7,3,57.5,6.7C486.6,520.3,404,570.7,311.7,571.7z"/>
</svg>
