<?xml version="1.0" encoding="utf-8"?>
<!-- Generator: Adobe Illustrator 24.1.2, SVG Export Plug-In . SVG Version: 6.00 Build 0)  -->
<svg version="1.1" id="Capa_1" xmlns="http://www.w3.org/2000/svg" xmlns:xlink="http://www.w3.org/1999/xlink" x="0px" y="0px"
	 viewBox="0 0 414.3 486.1" style="enable-background:new 0 0 414.3 486.1;" xml:space="preserve">
<path class="st0" d="M364.7,275.6c-14.9-14-28.3-17.6-44.1-17.6c0,0-6.4,0.2-1.3,6.6c6.7,8.5,55.9,72.6,55.1,125.1
	c-0.9,60.7-61,57.3-61,57.3c25.3-48.1,12.5-93.6,8.6-109.5c-7.5-29.4-22.1-57.9-44.2-85.4c-27.2-34.2-54.6-50.5-82.3-48.7
	c-11.8-20.4-22.3-36.8-31.5-50.2c50.1-44.7,17.5-66.3-10.9-153.2c-6.6,18.4-11.9,32.1-15.8,40.8c-20.1-2.5-64.6-2.5-84.6,0
	C48.8,32.1,43.5,18.4,36.9,0C8.5,87.1-24.2,108.1,26.4,153.1C31.8,255.3,52.9,282.5,87,331.8c28.1,40.6,21.1,55.1,34.2,111.3
	c-99.7,62.8,69.3,38.7,95.5,37.4c67.5-3.3,208.1,37.1,197-106.5C410.4,332.3,391.6,301.1,364.7,275.6z M58.4,95.1
	C27.5,92.8,31.9,75.6,47.2,76c8.7,0.3,19.5,6.4,27,19.1H58.4z M131.5,95.1h-15.8c7.5-12.7,18.3-18.8,27-19.1
	C158,75.6,162.4,92.8,131.5,95.1z"/>
</svg>
