<?xml version="1.0" encoding="utf-8"?>
<!-- Generator: Adobe Illustrator 24.1.2, SVG Export Plug-In . SVG Version: 6.00 Build 0)  -->
<svg version="1.1" id="Capa_1" xmlns="http://www.w3.org/2000/svg" xmlns:xlink="http://www.w3.org/1999/xlink" x="0px" y="0px"
	 viewBox="0 0 517.6 470" style="enable-background:new 0 0 517.6 470;" xml:space="preserve">
<g>
	<g>
		<path d="M517.6,356.1l-7.8-4.3c-0.5-0.3-49.2-27.5-49.2-66.8v-22.5c0-17.8-4.9-34.5-13.5-48.8c17.5-9.2,29.5-27.6,29.5-48.7
			c-1.2-7.3-7.4-12.7-14.6-12.8c-7.5-0.2-14.1,5.3-15.4,12.8c0,2-0.3,9.3-5.8,15.9c-3.6,4.3-8.6,7.4-14.3,8.6
			c-12.5-10.4-27.8-17.7-44.9-20.6l-167-28.5c-14.3-2.4-26.6-11.7-33-24.8L121,0c-8.1,0-16.3,0-24.4,0c0,18.1,0,36.1,0,54.2
			c-13.3,3.3-26.7,6.7-40,10c0,3.5,0,7.1,0,10.6c-17,6.7-34,13.3-51,20c-0.2,0.1-4.9,2.2-5.5,7.1c-0.5,3.8,1.7,7.6,5.5,9.3
			c9.9,9.9,19.9,19.9,29.8,29.8h61.2v51.7c0,39.2,18.5,75.3,50,98.1V440h-30c-8.2,0.8-14.3,7.9-13.9,15.8
			c0.4,7.3,6.3,13.5,13.9,14.2c20,0,40,0,60,0v-24.6l36.1-132.3c3.8-0.5,143.6-26.7,143.6-26.7c7.6,21.7,20,41.5,36.7,58.2
			c25.7,25.7,58.9,41.3,94.6,44.7V440h-30c-8.6,2.4-13.7,10.5-12.3,18c1.1,5.8,6,10.5,12.3,12c20,0,40,0,60,0V365V356.1z"/>
	</g>
</g>
</svg>
