<?xml version="1.0" encoding="utf-8"?>
<!-- Generator: Adobe Illustrator 24.1.2, SVG Export Plug-In . SVG Version: 6.00 Build 0)  -->
<svg version="1.1" id="Capa_1" xmlns="http://www.w3.org/2000/svg" xmlns:xlink="http://www.w3.org/1999/xlink" x="0px" y="0px"
	 viewBox="0 0 192 206.2" style="enable-background:new 0 0 192 206.2;" xml:space="preserve">
<g>
	<circle class="st0" cx="37.8" cy="76" r="3.7"/>
	<path d="M179,155.4c-3.4-0.6-2.3-2.3-2.3-6.6c-0.3-49.6-42.3-60.2-64.6-60c-22.3,0.1-28.8-5-31-6.9C79,80,82,74.3,78.2,67.4
		c-3.8-6.9-4.1-6.4-3.8-8c0.2-1.6,9.8-7.5,20.8-12.4s30.1-12.1,28.2-21.4c-1.9-9.3-24.2-2.4-41.4,5.7c-4.3,2-8.1,4.1-11.4,6.2
		c0.9-1.2,1.7-2.3,2.7-3.5c7.4-9.5,20.9-24.8,14.8-32.1C82-5.5,65.6,11,54.2,26.3C47.4,35.4,43.3,43.8,41.1,49
		c-1.3,0.2-2.6,0.4-3.8,0.7c-10,2.5-17.8,12-21.1,15.5C4,78.4-2.9,94.1,1.1,102.7c4,8.6,23.6,12.8,28.2,12.8c3.8,0,5.2,0.3,5.4,2.6
		c2.9,47.3-2.3,61-2.3,61s-0.3,8.8-6.3,8.6c-10-0.5-18.5,2.6-18.5,11.1s16,7.4,22.5,7.4s12.8-9.4,12.8-9.4s25.8-37.7,28.1-43.9
		c2.3-6.3,4.3-5.6,4.3-2.3c-1.7,13.4,8.3,31.9,34.5,34.8c-41.9-1.1-45,6-45,12.8s4.8,8,4.8,8s74.1,0,81.8,0s8.3-2.3,10-5.4
		c1.7-3.1-1.4-8.3-2.9-12.6c-1.4-4.3-0.3-8.8,1.7-10.3c2-1.4,12,5.7,17.4,6c5.4,0.3,14.4-2.8,14.4-14.5
		C192,157.7,182.5,156,179,155.4z M37.8,79.7c-2.1,0-3.7-1.7-3.7-3.7s1.7-3.7,3.7-3.7c2.1,0,3.7,1.7,3.7,3.7S39.9,79.7,37.8,79.7z"
		/>
</g>
</svg>
