<?xml version="1.0" encoding="utf-8"?>
<!-- Generator: Adobe Illustrator 24.1.2, SVG Export Plug-In . SVG Version: 6.00 Build 0)  -->
<svg version="1.1" baseProfile="tiny" id="Capa_1" xmlns="http://www.w3.org/2000/svg" xmlns:xlink="http://www.w3.org/1999/xlink"
	 x="0px" y="0px" viewBox="0 0 512 566.5" overflow="visible" xml:space="preserve">
<g>
	<path d="M365.3,138.3c-32.4-0.7-62.5,13.2-87.6,35.7C273.5,144.6,262,121,262,121C397.8,102.6,359.9,0.2,359.9,0.2
		c-95.9-4.1-114.5,53.3-116.5,91c-29.5-31.6-62.9-49.7-76.8-56c-13.3-6-28.9,0.9-34.4,14.4c-5.5,13.5,1.2,28.3,14.4,34.4
		c17.5,8,72.4,27.9,89,91.8c-25.5-23.6-56.3-37.5-89.6-37.5c-87.5,0-168.5,72.4-140.2,214.1c23.1,115.9,107.5,214.1,195.1,214.1
		c22.8,0,40.8-6.5,54.8-18.3c14.1,11.7,32,18.4,54.9,18.3c90.5-0.6,167.8-93,195.1-214.1C533.2,229.8,469.2,140.5,365.3,138.3z"/>
</g>
</svg>
