<?xml version="1.0" encoding="utf-8"?>
<!-- Generator: Adobe Illustrator 24.1.2, SVG Export Plug-In . SVG Version: 6.00 Build 0)  -->
<svg version="1.1" baseProfile="tiny" id="Слой_1"
	 xmlns="http://www.w3.org/2000/svg" xmlns:xlink="http://www.w3.org/1999/xlink" x="0px" y="0px" viewBox="0 0 568.4 577"
	 overflow="visible" xml:space="preserve">
<path d="M175.6,294.6c-25.2-29.1-54.6-44.2-83.4-42.8c-27.3,1.4-52.4,17.6-70.6,45.8c-25.4,39.3-27.3,89.3-5,130.4
	c22.3,41.1,65.3,66.7,112,66.9c9.1,0,18.1-1,27-2.9c33.2-7,62.2-27,80.5-55.5c18.2-28.1,22.8-57.7,12.8-83.2
	C238.3,326.3,212.4,305.6,175.6,294.6z M191,385.4c-11.8,0-21.3-9.5-21.3-21.3c0-11.8,9.5-21.3,21.3-21.3s21.3,9.5,21.3,21.3
	C212.3,375.9,202.8,385.4,191,385.4z"/>
<path d="M476,372.5c-23.4-16.9-56.4-20.2-93.3-9.4c-36.9-10.8-69.9-7.5-93.3,9.4c-22.2,16-34.4,43.3-34.4,76.8
	c0,70.6,57.2,127.8,127.8,127.8c70.6,0,127.8-57.2,127.8-127.8C510.4,415.8,498.2,388.5,476,372.5z M446.5,428
	c-11.8,0-21.3-9.5-21.3-21.3c0-11.8,9.5-21.3,21.3-21.3c11.8,0,21.3,9.5,21.3,21.3C467.8,418.5,458.3,428,446.5,428z"/>
<path d="M499.8,122.8l68.6-69.8L555.1,40c-24.2-23.8-56.1-36.8-90-36.8c-0.5,0-0.9,0-1.4,0c-34.2,0.4-66.2,14-90,38.4l-41.5,42.2
	c0,0.2-0.1,0.4-0.1,0.6c-8-5.9-16.4-11.3-25.1-16.1c-6.6-3.3-14.4-2.9-20.7,0.9S276.2,80,276.2,87.3c0,78.1-53.9,149.3-89.5,187.9
	c0.3,0.3,0.6,0.6,0.9,0.9c13.8,4.5,26.9,10.8,39,18.8c33.8-38.3,76.9-99,89-169.7c36.4,30,91.9,97.3,60.2,214.2
	c2.3,0.5,4.6,1,6.9,1.6c12.3-3.3,25-5.1,37.8-5.4c17.2-77.1,1-135.1-21.1-175.1C435.6,163.1,472.6,150.5,499.8,122.8z"/>
</svg>
