<?xml version="1.0" encoding="utf-8"?>
<!-- Generator: Adobe Illustrator 24.1.2, SVG Export Plug-In . SVG Version: 6.00 Build 0)  -->
<svg version="1.1" baseProfile="tiny" id="Capa_1" xmlns="http://www.w3.org/2000/svg" xmlns:xlink="http://www.w3.org/1999/xlink"
	 x="0px" y="0px" viewBox="0 0 449.9 465.1" overflow="visible" xml:space="preserve">
<g>
	<g>
		<path fill="#010002" d="M65.9,465.1c25.3,0,47.3-14.4,58.4-35.4c-10.9-9.8-19.1-22.6-23.2-37.1c-5.4,1.2-11,1.9-16.8,1.9
			c-28.9,0-54.1-15.8-67.6-39.1C6.4,367.1,0,382.4,0,399.2C0,435.5,29.6,465.1,65.9,465.1z"/>
		<path fill="#010002" d="M23.3,341.2c0.8,1.9,1.7,3.8,2.6,5.7c11,21,33.1,35.5,58.4,35.5c4.9,0,9.8-0.6,14.4-1.6
			c-0.3-3-0.6-6-0.6-9.1c0-9.5,1.8-18.5,4.9-26.9c0.7-2,1.5-3.9,2.4-5.7c0.9-1.8,1.7-3.7,2.7-5.4c4.7-8.4,10.9-15.8,18.2-21.9
			c-33.2-1.7-61-24.1-70.6-54.5c-22.1,10.7-37.4,33.2-37.4,59.3c0,6.5,1,12.9,2.8,18.8C21.8,337.3,22.5,339.3,23.3,341.2z"/>
		<path fill="#010002" d="M162.1,324.5c-2.5-4.9-4.6-10.2-6-15.6c0,0,0,0-0.1,0c-2,0.7-4,1.4-6,2.3c-13.8,6-25.1,16.6-32.1,29.9
			c-1,1.9-1.9,3.8-2.7,5.7c-0.8,2.1-1.6,4.2-2.2,6.4c-1.7,5.9-2.7,12.1-2.7,18.5c0,1.8,0.1,3.5,0.3,5.3c0.2,2.1,0.4,4.2,0.8,6.3
			c0.4,2,0.8,4,1.4,6c3,10.9,8.7,20.7,16.4,28.6c1.6,1.6,3.2,3.1,4.9,4.6c1.6,1.4,3.3,2.6,5.1,3.8c10.6,7.2,23.3,11.5,37.1,11.5
			c36.4,0,65.9-29.6,65.9-65.9c0-1.8-0.1-3.6-0.3-5.4c-3.4,0.5-6.9,0.8-10.5,0.8C201.3,366.9,175,349.7,162.1,324.5z"/>
		<path fill="#010002" d="M65.7,246.9c0.4,2,0.9,4,1.5,5.9c8.2,27,33.4,46.8,63.1,46.8c5.9,0,11.6-0.9,17.1-2.3
			c2-0.5,3.9-1.2,5.8-1.9c0.1-0.1,0.3-0.1,0.4-0.2c-0.2-2.1-0.3-4.3-0.3-6.4c0-2.7,0.1-5.4,0.4-8.1c1.9-18.7,10.5-35.4,23.3-47.9
			c-7.9-11.1-13-24.3-14.2-38.6c-9.9,4.6-20.9,7.2-32.6,7.2c-17.2,0-33-5.6-45.9-15c-12.3,12-20.1,28.7-20.1,47.3
			c0,2.4,0.2,4.8,0.4,7.2C65,242.9,65.3,244.9,65.7,246.9z"/>
		<path fill="#010002" d="M251.7,351.5c12.2-4,22.9-11.4,30.9-21.2c-17.2-14.3-28.1-35.9-28.1-59.9c0-2,0.2-4,0.3-6
			c-4.6,0.8-9.3,1.3-14.1,1.3c-12.9,0-25.1-3.2-35.8-8.8c-1.9-1-3.7-2-5.5-3.1c-1.8-1.1-3.6-2.4-5.3-3.7c-3.3-2.4-6.4-5.1-9.2-8
			c-11.9,11.9-19.3,28.4-19.3,46.6c0,0.2,0,0.3,0,0.5c0,1.7,0.1,3.3,0.3,5c0.1,0.6,0.1,1.3,0.2,1.9c0.2,1.4,0.4,2.7,0.6,4.1
			c0.1,0.8,0.2,1.5,0.4,2.3c0.3,1.2,0.6,2.4,0.9,3.6c7.7,27.9,33.2,48.5,63.5,48.5c2.8,0,5.6-0.2,8.4-0.6c2-0.3,4.1-0.6,6-1
			C247.9,352.7,249.8,352.2,251.7,351.5z"/>
		<path fill="#010002" d="M89.1,174.6c1.7,1.4,3.4,2.6,5.3,3.8c10.4,6.8,22.7,10.8,36,10.8c11.9,0,23-3.2,32.6-8.7
			c0.1-1.3,0.3-2.6,0.5-3.8c0.3-2.2,0.7-4.3,1.2-6.4c0.5-2,0.9-4,1.6-6c5.3-16.7,16-31,30.1-40.8c0-0.1,0-0.1,0-0.2
			c0-36.4-29.6-65.9-65.9-65.9s-65.9,29.6-65.9,65.9c0,18.5,7.7,35.3,20.1,47.3C85.9,172,87.4,173.3,89.1,174.6z"/>
		<path fill="#010002" d="M177.4,169.4c-0.2,0.6-0.3,1.1-0.4,1.7c-0.6,2.1-1,4.3-1.3,6.6c-0.1,0.6-0.2,1.2-0.3,1.9
			c-0.2,1.9-0.4,3.7-0.4,5.7c0,0.8-0.1,1.5-0.1,2.3c0,0.1,0,0.1,0,0.2c0,13.9,4.3,26.8,11.7,37.4c1.2,1.7,2.4,3.3,3.7,4.8
			c1.3,1.6,2.7,3.1,4.2,4.5c0.6,0.6,1.3,1.1,1.9,1.7c1.9,1.7,3.8,3.3,5.9,4.8c1.8,1.3,3.7,2.5,5.6,3.7c9.7,5.7,21,9,33.1,9
			c5.6,0,11-0.8,16.2-2.1c1.7-6.9,4.3-13.5,7.8-19.5c1-1.8,2-3.5,3.2-5.2c1.1-1.7,2.4-3.3,3.6-4.9c8.9-11.1,20.7-19.8,34.3-24.7
			c0.4-3.1,0.8-6.2,0.8-9.5c0-17.6-7-33.6-18.3-45.5c0.8-2.1,1.6-4.2,2.5-6.2c0.9-1.9,1.8-3.8,2.8-5.7c24-48.2,70.8-77.1,120-97.6
			c19.1-8,10.7-39.4-8.6-31.4c-58.2,24.3-110.2,57.2-139.1,112.4c-0.9,1.8-1.8,3.7-2.7,5.5c-0.9,1.8-1.8,3.6-2.7,5.5
			c-6.3-2-12.9-3-19.8-3c-11.9,0-23,3.2-32.6,8.7c-2.3,1.3-4.6,2.8-6.8,4.5c-2.7,2-5.3,4.2-7.7,6.7
			C186.1,149.2,180.4,158.8,177.4,169.4z"/>
		<path fill="#010002" d="M289.5,320.1c1.6,1.3,3.2,2.6,4.8,3.8c1.6,1.2,3.3,2.3,5.1,3.3c9.8,5.7,21.1,9.1,33.2,9.1
			c36.4,0,65.9-29.6,65.9-65.9c0-36.4-29.6-65.9-65.9-65.9c-5.6,0-11,0.8-16.2,2.1c-2.3,0.6-4.6,1.3-6.8,2.1c-2.6,1-5.2,2.1-7.7,3.4
			c-7.9,4.2-14.8,9.9-20.3,16.7c-1.3,1.6-2.5,3.2-3.6,4.9c-1.2,1.7-2.2,3.5-3.2,5.3c-1.2,2.2-2.2,4.5-3.2,6.8c-1,2.6-1.9,5.3-2.6,8
			c-0.6,2.3-1.1,4.6-1.4,7c-0.4,3.1-0.8,6.2-0.8,9.5C266.7,290.3,275.6,308,289.5,320.1z"/>
		<path fill="#010002" d="M449.9,174.2c0,0-50.4-148.3-110.6-74.8C279.2,172.8,407.9,202.6,449.9,174.2z"/>
	</g>
</g>
</svg>
