<?xml version="1.0" encoding="utf-8"?>
<!-- Generator: Adobe Illustrator 24.1.2, SVG Export Plug-In . SVG Version: 6.00 Build 0)  -->
<svg version="1.1" baseProfile="tiny" id="Capa_1" xmlns="http://www.w3.org/2000/svg" xmlns:xlink="http://www.w3.org/1999/xlink"
	 x="0px" y="0px" viewBox="0 0 126.4 215" overflow="visible" xml:space="preserve">
<path d="M106.3,115.1c-8.6-12-11.9-28.9-14.6-42.5c-2.2-11-3.6-18.2-7.4-22.5c-3.5-4-8.3-6.3-13.8-6.7c0.4-3.4,1.3-7.9,3.7-12.7
	c5.2-10.8,12.3-15.8,12.5-16c3.4-2.3,4.3-6.9,2-10.4c-2.3-3.4-7-4.4-10.4-2.1c-0.4,0.3-10.5,7.1-17.6,21.9c0,0.1-0.1,0.2-0.1,0.2
	l-2-1.4C56.9,16.8,51.5,4.4,35.5,1c-3.1-0.7-6.1-1-9-1C12.7,0,6.1,7.5,5.4,8.4c-1.6,1.9-2.1,4.4-1.4,6.8c0.6,2,6,20,21.2,23.3
	c2.2,0.5,4.6,0.7,7.1,0.7c0,0,0,0,0,0c7.1,0,14.2-2,18.5-3.5l5.1,3.7c-0.2,1.4-0.4,2.7-0.5,3.9c-5.3,0.5-9.9,2.8-13.3,6.7
	c-3.8,4.3-5.2,11.5-7.4,22.5c-2.7,13.6-6,30.6-14.6,42.5C3.7,138.1-0.8,150,0.1,168.5C1.3,190.9,16.9,215,48.5,215h1.7
	c5.1,0,9-0.1,12.6-0.8c0.3-0.1,0.6-0.1,0.8,0c3.6,0.7,7.5,0.8,12.6,0.8h1.7c31.8,0,47.2-23.4,48.4-46.6
	C127.2,150,122.7,138.1,106.3,115.1z"/>
</svg>
