<svg viewBox="0 0 17 26" fill="none" xmlns="http://www.w3.org/2000/svg">
<path d="M8.20473 20.3704C7.46268 20.3704 6.8287 20.6105 6.30396 21.0897C5.77961 21.5684 5.51587 22.1481 5.51587 22.8317C5.51587 23.6019 5.78117 24.2062 6.31098 24.646C6.84235 25.0858 7.46112 25.3077 8.16845 25.3077C8.88748 25.3077 9.51483 25.089 10.0517 24.6552C10.5881 24.2194 10.8561 23.6122 10.8561 22.8313C10.8561 22.1477 10.5998 21.568 10.0868 21.0893C9.57374 20.6109 8.94717 20.3704 8.20356 20.3704" fill="#000"/>
<path d="M15.7844 3.42634C15.1016 2.37025 14.1259 1.52569 12.8825 0.913744C11.6461 0.307365 10.2061 0 8.60108 0C6.87314 0 5.3352 0.368201 4.03212 1.09466C2.72749 1.82232 1.71936 2.75594 1.03583 3.8693C0.349177 4.98821 0 6.1135 0 7.21492C0 7.80221 0.240328 8.35054 0.71162 8.84359C1.18525 9.33983 1.77437 9.59073 2.46258 9.59073C3.63691 9.59073 4.43709 8.88853 4.8444 7.51115C5.21543 6.37195 5.67306 5.50314 6.2021 4.92738C6.69992 4.38502 7.50751 4.10986 8.60108 4.10986C9.54445 4.10986 10.2888 4.37945 10.8795 4.93493C11.4612 5.48286 11.7445 6.13576 11.7445 6.93101C11.7445 7.33262 11.6524 7.69326 11.4678 8.03442C11.2716 8.39229 11.027 8.72112 10.741 9.01378C10.4387 9.32234 9.93966 9.78557 9.25769 10.3947C8.46336 11.1045 7.82236 11.726 7.35575 12.2421C6.86807 12.7785 6.47285 13.4091 6.17752 14.1157C5.88257 14.8271 5.73275 15.676 5.73275 16.6402C5.73275 17.4629 5.95787 18.0999 6.40263 18.5337C6.84271 18.9632 7.39086 19.1819 8.03265 19.1819C9.25964 19.1819 10.0306 18.4983 10.26 17.2196C10.3762 16.688 10.4644 16.3166 10.5229 16.1054C10.576 15.9134 10.6528 15.7162 10.7515 15.5193C10.8475 15.3277 10.9993 15.1106 11.2041 14.8732C11.4175 14.6223 11.7058 14.328 12.0593 13.9992C13.3815 12.7944 14.3143 11.9228 14.8317 11.4067C15.3654 10.8751 15.8308 10.2353 16.2151 9.50683C16.6107 8.76128 16.8112 7.88293 16.8112 6.89881C16.812 5.65384 16.4652 4.48442 15.7824 3.42475" fill="#000"/>
</svg>