<svg height="512pt" viewBox="0 0 512 512" width="512pt" xmlns="http://www.w3.org/2000/svg"><path d="m30 300c0 33.089844 27.910156 60 61 60s60-26.910156 60-60c0-3.429688-.308594-6.824219-.90625-10.179688 17.105469-7.957031 31.769531-20.363281 42.40625-35.847656 39.082031 21.035156 87.917969 21.035156 127 0 10.636719 15.484375 25.300781 27.890625 42.40625 35.847656-.597656 3.355469-.90625 6.75-.90625 10.179688 0 33.089844 26.910156 60 60 60s61-26.910156 61-60c0-9.039062-2.109375-17.929688-6.0625-26.015625 22.804688-19.835937 36.0625-48.414063 36.0625-78.984375 0-40.574219-24.746094-77.257812-61.132812-94.511719-2.34375-39.257812-35.023438-70.488281-74.867188-70.488281-9.886719 0-19.6875 2.019531-28.855469 5.902344-25.035156-23.230469-56.984375-35.902344-91.144531-35.902344s-66.109375 12.671875-91.144531 35.902344c-9.167969-3.882813-18.96875-5.902344-28.855469-5.902344-39.84375 0-72.523438 31.230469-74.867188 70.488281-36.386718 17.253907-61.132812 53.9375-61.132812 94.511719 0 30.570312 13.257812 59.148438 36.0625 78.984375-3.953125 8.085937-6.0625 16.976563-6.0625 26.015625zm376-120c-8.289062 0-15-6.710938-15-15s6.710938-15 15-15c24.8125 0 45 20.1875 45 45s-20.1875 45-45 45c-8.289062 0-15-6.710938-15-15s6.710938-15 15-15c8.277344 0 15-6.722656 15-15s-6.722656-15-15-15zm-150-120c41.351562 0 75 33.648438 75 75 0 8.289062-6.710938 15-15 15s-15-6.710938-15-15c0-24.8125-20.1875-45-45-45s-45 20.1875-45 45c0 8.289062-6.710938 15-15 15s-15-6.710938-15-15c0-41.351562 33.648438-75 75-75zm-150 90c8.289062 0 15 6.710938 15 15s-6.710938 15-15 15c-8.277344 0-15 6.722656-15 15s6.722656 15 15 15c8.289062 0 15 6.710938 15 15s-6.710938 15-15 15c-24.8125 0-45-20.1875-45-45s20.1875-45 45-45zm0 0"/><path d="m256 299.75c-10.125 0-20.144531-1.070312-30-2.875v78.125l-45.289062-67.925781c-1.910157 24.445312-13.789063 45.988281-31.382813 61.066406l6.828125 10.242187c23.320312 34.996094 36.957031 77.628907 39.433594 119.496094.46875 7.9375 7.03125 14.121094 14.972656 14.121094h90.878906c7.9375 0 14.5-6.183594 14.96875-14.121094 2.476563-41.867187 16.113282-84.5 39.4375-119.496094l6.828125-10.242187c-17.597656-15.082031-29.476562-36.625-31.386719-61.074219l-45.289062 67.933594v-78.125c-9.855469 1.804688-19.875 2.875-30 2.875zm0 0"/></svg>