<?xml version="1.0" encoding="utf-8"?>
<!-- Generator: Adobe Illustrator 24.1.2, SVG Export Plug-In . SVG Version: 6.00 Build 0)  -->
<svg version="1.1" baseProfile="tiny" id="Capa_1" xmlns="http://www.w3.org/2000/svg" xmlns:xlink="http://www.w3.org/1999/xlink"
	 x="0px" y="0px" viewBox="0 0 512 494" overflow="visible" xml:space="preserve">
<g>
	<path d="M82.3,301.3c4.3-56.1,19.1-103.1,42.8-136.1c5.3-7.4,11.2-14.2,17.8-20.4c-7-4.1-17.5-7.4-33.2-7.4
		c-28.2,0-55.2,15.7-76,44.3C12,211.4,0,250.9,0,292.9c0,50.8,3.8,87.6,12,115.8c9.3,32.2,24.9,54.6,47.6,68.4
		c16.4,9.9,33,10.6,50.5,2C84.4,446,75.6,389.1,82.3,301.3z"/>
	<path d="M201.1,137.5c-43.7,0-92.3,56.8-100.6,165.3c-6.7,86.8,2.5,142.4,28.1,170c13.2,14.3,31,21.3,54.2,21.3
		c10.3-0.3,20.5-2.1,30.3-5.2c19.1-6.4,30.4-17.2,33.7-32.3V166.2C245.2,161.3,235.5,137.5,201.1,137.5L201.1,137.5z"/>
	<path d="M411.5,302.7c-8.3-108.5-56.9-165.3-100.6-165.3c-34.3,0-44.1,23.8-45.7,28.8v290.3c3.3,15.1,14.7,25.9,33.7,32.3
		c9.8,3.2,20,4.9,30.3,5.2c23.2,0,41-7,54.2-21.3C408.9,445.1,418.1,389.5,411.5,302.7L411.5,302.7z"/>
	<path d="M402.3,137.5c-15.7,0-26.2,3.4-33.2,7.4c6.6,6.2,12.6,13,17.8,20.4c23.7,32.9,38.5,80,42.8,136.1
		c6.8,87.8-2.1,144.7-27.8,177.8c17.5,8.6,34.1,7.9,50.5-2c22.7-13.8,38.3-36.1,47.6-68.4c8.2-28.2,12-65,12-115.8
		c0-42-12-81.5-33.7-111.2C457.5,153.2,430.5,137.5,402.3,137.5L402.3,137.5z"/>
	<path d="M276.4,106.7c-1.4-1.6-2.1-3.7-2.1-5.9c0-50.8-18.4-82.8-28.1-96.1c-7-6.7-18.1-6.2-24.2,0.6c-5.6,6.3-5.4,16.4,0.8,22.8
		c11.6,18.9,20.3,46.7,14.8,74.5c-0.2,1.2-0.7,2.3-1.4,3.3L225,122.7c10.7,3.3,20.2,9.5,27.6,17.9c1.3,1.4,2.4,2.9,3.4,4.3
		c1-1.4,2.2-2.8,3.4-4.3c7.9-9,18.2-15.4,29.7-18.5L276.4,106.7z"/>
</g>
</svg>
