<?xml version="1.0" encoding="utf-8"?>
<!-- Generator: Adobe Illustrator 24.1.2, SVG Export Plug-In . SVG Version: 6.00 Build 0)  -->
<svg version="1.1" baseProfile="tiny" id="Слой_1"
	 xmlns="http://www.w3.org/2000/svg" xmlns:xlink="http://www.w3.org/1999/xlink" x="0px" y="0px" viewBox="0 0 395 402"
	 overflow="visible" xml:space="preserve">
<path d="M300.4,149.1c-10.3,0-20.3,1.7-29.6,4.7c12.9-16.2,20.6-36.7,20.6-58.9c0-52.4-42.5-94.9-94.9-94.9s-94.9,42.5-94.9,94.9
	c0,21.9,7.4,42,19.8,58c-8.4-2.5-17.4-3.8-26.6-3.8C42.5,149.1,0,191.5,0,243.9c0,52.4,42.5,94.9,94.9,94.9
	c40,0,74.2-24.8,88.2-59.9c0,0.4-0.1,0.8-0.1,1.1c-1.9,24.8-10.4,48.6-18.1,70c-7.9,22-16.3,39.7-22.6,51.9h110.7
	c-6.3-12.2-14.7-29.9-22.6-51.9c-7.4-20.8-16.2-45.2-18.1-70c0-0.4-0.1-0.8-0.1-1.1c13.9,35.1,48.1,59.9,88.2,59.9
	c52.4,0,94.9-42.5,94.9-94.9C395.2,191.5,352.8,149.1,300.4,149.1z"/>
</svg>
