<?xml version="1.0" encoding="utf-8"?>
<!-- Generator: Adobe Illustrator 24.1.2, SVG Export Plug-In . SVG Version: 6.00 Build 0)  -->
<svg version="1.1" baseProfile="tiny" id="Слой_1"
	 xmlns="http://www.w3.org/2000/svg" xmlns:xlink="http://www.w3.org/1999/xlink" x="0px" y="0px" viewBox="0 0 440 402"
	 overflow="visible" xml:space="preserve">
<path d="M217.4,61.5c23-39.3,64.3-63.2,107.4-61.4C378.7,2.4,410,43.8,417,53.8c22.5,32.1,23,65.6,23,79.3c0,32.3-10.4,58.6-23,81.9
	c-62.3,114.9-193,183.8-197,186.7l0,0c-41.7-22.2-136-78.2-189.3-171.4C2,180.1-0.2,144.8,0,128c0.2-18.4,0.5-53.3,25.6-84.4
	C46.1,18,80.6-1.6,120.2,0.1C184.1,2.7,215.8,58.5,217.4,61.5z"/>
</svg>
