<?xml version="1.0" encoding="utf-8"?>
<!-- Generator: Adobe Illustrator 24.1.2, SVG Export Plug-In . SVG Version: 6.00 Build 0)  -->
<svg version="1.1" baseProfile="tiny" id="Слой_1"
	 xmlns="http://www.w3.org/2000/svg" xmlns:xlink="http://www.w3.org/1999/xlink" x="0px" y="0px" viewBox="0 0 440 512"
	 overflow="visible" xml:space="preserve">
<path d="M194.8,375.7c-4,18.8-9.4,39.4-16.7,61.2c-9.5,28.6-20.4,53.7-31.1,75.1c47.5,0,94.9,0,142.4,0c-9.4-18.1-19.2-39.5-27.8-64
	c-9.4-26.5-15.5-51-19.5-72.3c5.4,5.5,39.7,39.1,91.8,36.2c9.4-0.5,48.8-3.9,77.9-36.2c29.9-33.1,28.5-73.8,27.8-91.8
	c-0.3-8.2-2.1-39.6-25-80.7c-30.5-54.6-64.1-65.1-128-128c-17.3-17-41-42-66.8-75.1c-31,32.8-57.4,58.3-75.1,75.1
	c-74.9,70.7-109,91-130.8,144.7C2.1,248.8,0.2,272.4,0,286.6c-0.2,21.5-0.5,54.2,22.3,83.5c30,38.6,77.2,41.5,83.5,41.7
	C157,414.1,189.9,380.8,194.8,375.7z"/>
</svg>
